<svg id="Layer_1" data-name="Layer 1" xmlns="http://www.w3.org/2000/svg" viewBox="0 0 1000 1000"><defs><style>.cls-1{fill:#231f20;}.cls-2,.cls-3{fill:none;}.cls-2{stroke:#231f20;stroke-miterlimit:10;stroke-width:22.52px;}</style></defs><rect class="cls-1" x="139.39" y="886.92" width="721.22" height="25.36"/><rect class="cls-1" x="455.99" y="447.91" width="222.89" height="25.36" transform="translate(992.44 -133.97) rotate(86.49)"/><rect class="cls-1" x="441.24" y="623.71" width="184.79" height="25.36" transform="translate(1341.05 441.88) rotate(116.44)"/><rect class="cls-1" x="521.64" y="623.71" width="184.79" height="25.36" transform="translate(910.5 -196.76) rotate(63.56)"/><rect class="cls-1" x="449.35" y="417.05" width="150.65" height="25.36" transform="matrix(0.5, -0.87, 0.87, 0.5, -109.81, 669.25)"/><rect class="cls-1" x="524.88" y="408.6" width="150.65" height="25.36" transform="translate(467.59 1142.49) rotate(-114.65)"/><rect class="cls-1" x="200.68" y="101.22" width="386.43" height="25.36" transform="translate(-6.23 24.31) rotate(-3.51)"/><rect class="cls-1" x="468.89" y="155.19" width="183.52" height="25.36" transform="translate(728.51 -392.77) rotate(90)"/><rect class="cls-1" x="-179.36" y="490.62" width="792.27" height="25.36" transform="translate(729.45 309.75) rotate(92.62)"/><rect class="cls-1" x="148.77" y="807.81" width="253.54" height="25.36" transform="translate(708.04 70.77) rotate(48.54)"/><rect class="cls-1" x="194.77" y="174.96" width="191.77" height="25.36" transform="translate(623.35 92.73) rotate(131.23)"/><circle class="cls-2" cx="560.64" cy="304.76" r="53.39"/><rect class="cls-3" width="1000" height="1000"/></svg>